<svg xmlns="http://www.w3.org/2000/svg" xmlns:xlink="http://www.w3.org/1999/xlink" width="500" zoomAndPan="magnify" viewBox="0 0 375 374.999991" height="500" preserveAspectRatio="xMidYMid meet" version="1.0"><defs><filter x="0%" y="0%" width="100%" height="100%" id="319ab2348a"><feColorMatrix values="0 0 0 0 1 0 0 0 0 1 0 0 0 0 1 0 0 0 1 0" color-interpolation-filters="sRGB"/></filter><g/><clipPath id="5adeb09f67"><path d="M 115.714844 103.246094 L 244.714844 103.246094 L 244.714844 226.996094 L 115.714844 226.996094 Z M 115.714844 103.246094 " clip-rule="nonzero"/></clipPath><clipPath id="5c49fbfc8e"><path d="M 149.851562 109.96875 C 152.726562 109.96875 155.058594 112.300781 155.058594 115.183594 C 155.058594 118.0625 152.726562 120.394531 149.851562 120.394531 C 146.976562 120.394531 144.644531 118.0625 144.644531 115.183594 C 144.644531 112.300781 146.976562 109.96875 149.851562 109.96875 Z M 153.789062 135.917969 C 156.304688 135.917969 158.347656 137.964844 158.347656 140.484375 C 158.347656 143.007812 156.304688 145.050781 153.789062 145.050781 C 151.269531 145.050781 149.226562 143.007812 149.226562 140.484375 C 149.226562 137.964844 151.269531 135.917969 153.789062 135.917969 Z M 122.546875 126.582031 C 126.320312 126.582031 129.378906 129.648438 129.378906 133.425781 C 129.378906 137.203125 126.320312 140.265625 122.546875 140.265625 C 118.773438 140.265625 115.714844 137.203125 115.714844 133.425781 C 115.714844 129.648438 118.773438 126.582031 122.546875 126.582031 Z M 171.945312 180.296875 C 169.40625 180.296875 167.34375 182.359375 167.34375 184.90625 C 167.34375 187.453125 169.40625 189.515625 171.945312 189.515625 C 174.488281 189.515625 176.550781 187.453125 176.550781 184.90625 C 176.550781 182.359375 174.488281 180.296875 171.945312 180.296875 Z M 144.542969 162.152344 C 148.140625 162.152344 151.054688 165.070312 151.054688 168.671875 C 151.054688 172.273438 148.140625 175.191406 144.542969 175.191406 C 140.945312 175.191406 138.03125 172.273438 138.03125 168.671875 C 138.03125 165.070312 140.945312 162.152344 144.542969 162.152344 Z M 209.296875 125.320312 C 207.332031 125.84375 205.214844 126.582031 203.023438 127.515625 C 203.152344 128.027344 203.21875 128.558594 203.21875 129.109375 C 203.21875 129.316406 203.210938 129.519531 203.191406 129.722656 C 203.390625 129.792969 203.589844 129.871094 203.789062 129.945312 C 204.5 130.214844 205.199219 130.496094 205.890625 130.789062 C 214.308594 134.351562 221.351562 139.582031 226.101562 145.503906 C 225.375 142.554688 224.261719 139.695312 222.800781 136.964844 C 220.832031 133.285156 218.222656 129.835938 215.078125 126.710938 C 214.4375 127.113281 213.683594 127.34375 212.875 127.34375 C 211.355469 127.34375 210.027344 126.53125 209.296875 125.320312 Z M 186.113281 111.410156 C 189.578125 114.457031 192.65625 118.300781 195.230469 122.757812 C 195.707031 122.648438 196.199219 122.589844 196.707031 122.589844 C 198.792969 122.589844 200.652344 123.574219 201.84375 125.101562 C 204.242188 124.074219 206.5625 123.265625 208.722656 122.695312 C 208.769531 122.300781 208.867188 121.925781 209.011719 121.570312 C 208.304688 121.058594 207.578125 120.558594 206.835938 120.070312 C 200.988281 116.242188 194.121094 113.289062 186.535156 111.503906 Z M 191.242188 183.890625 C 192.3125 182.128906 193.316406 180.328125 194.242188 178.5 C 194.664062 177.667969 195.070312 176.828125 195.460938 175.988281 C 197.464844 171.652344 199.019531 167.199219 199.964844 162.777344 C 197.757812 161.78125 196.21875 159.558594 196.21875 156.972656 C 196.21875 154.03125 198.214844 151.554688 200.925781 150.828125 C 200.894531 150.394531 200.859375 149.964844 200.8125 149.535156 C 200.441406 146.050781 199.839844 142.679688 199.027344 139.464844 C 198.953125 139.171875 198.875 138.878906 198.800781 138.589844 C 198.519531 137.550781 198.222656 136.527344 197.902344 135.523438 C 197.515625 135.59375 197.117188 135.632812 196.707031 135.632812 C 194.847656 135.632812 193.171875 134.851562 191.984375 133.601562 C 191.714844 133.785156 191.445312 133.972656 191.175781 134.164062 C 190.832031 134.40625 190.488281 134.652344 190.144531 134.90625 C 185.703125 138.171875 181.519531 142.109375 178.179688 146.597656 C 179.347656 147.757812 180.070312 149.367188 180.070312 151.144531 C 180.070312 153.648438 178.636719 155.816406 176.542969 156.871094 L 176.566406 156.9375 C 179.378906 165.613281 184.726562 175.292969 191.242188 183.890625 Z M 222.195312 171.523438 C 222.515625 171.007812 222.828125 170.492188 223.132812 169.96875 C 225.085938 166 226.28125 162.039062 226.796875 158.148438 C 227.003906 156.589844 227.101562 155.042969 227.09375 153.511719 C 227.089844 152.890625 227.070312 152.269531 227.035156 151.652344 C 226.773438 151.1875 226.5 150.722656 226.207031 150.261719 C 221.90625 143.433594 214.304688 137.261719 204.851562 133.257812 C 204.046875 132.917969 203.226562 132.59375 202.394531 132.285156 C 201.90625 133.167969 201.214844 133.921875 200.390625 134.488281 C 200.957031 136.246094 201.460938 138.054688 201.898438 139.910156 C 202.363281 141.878906 202.75 143.902344 203.0625 145.964844 C 203.222656 147.046875 203.363281 148.144531 203.480469 149.25 C 203.53125 149.730469 203.574219 150.214844 203.605469 150.699219 C 206.621094 151.195312 208.921875 153.8125 208.921875 156.972656 C 208.921875 157.914062 208.71875 158.804688 208.351562 159.605469 C 210.46875 161.425781 212.574219 163.535156 214.644531 165.875 C 215.648438 167.011719 216.648438 168.203125 217.628906 169.441406 C 218.183594 170.136719 218.730469 170.851562 219.277344 171.574219 C 219.757812 171.40625 220.273438 171.316406 220.8125 171.316406 C 221.296875 171.316406 221.757812 171.386719 222.195312 171.523438 Z M 195.730469 193.4375 C 195.074219 192.726562 194.425781 192.003906 193.785156 191.269531 C 193.058594 190.4375 192.339844 189.585938 191.632812 188.71875 L 191.476562 188.523438 C 191.234375 188.886719 190.992188 189.246094 190.746094 189.605469 C 186.882812 195.21875 182.445312 200.328125 177.839844 204.550781 C 183.578125 203.054688 189.578125 200.5625 195.402344 197.175781 C 195.242188 196.703125 195.152344 196.199219 195.152344 195.671875 C 195.152344 194.863281 195.363281 194.101562 195.730469 193.4375 Z M 217.097656 173.144531 C 215.671875 171.246094 214.210938 169.445312 212.738281 167.765625 C 210.761719 165.523438 208.753906 163.5 206.75 161.761719 C 205.636719 162.738281 204.183594 163.328125 202.589844 163.332031 C 201.519531 168.332031 199.71875 173.34375 197.390625 178.1875 C 197.144531 178.695312 196.894531 179.203125 196.636719 179.707031 C 195.527344 181.898438 194.308594 184.050781 193.003906 186.148438 C 193.183594 186.375 193.363281 186.597656 193.546875 186.820312 C 194.285156 187.730469 195.039062 188.625 195.800781 189.5 C 196.414062 190.203125 197.03125 190.894531 197.652344 191.570312 C 198.285156 191.246094 199 191.0625 199.757812 191.0625 C 200.953125 191.0625 202.042969 191.519531 202.859375 192.265625 C 204.234375 191.246094 205.589844 190.175781 206.917969 189.054688 C 208.464844 187.746094 209.976562 186.371094 211.4375 184.929688 C 213.394531 182.996094 215.261719 180.945312 217.019531 178.78125 C 216.453125 178.003906 216.121094 177.050781 216.121094 176.015625 C 216.121094 174.933594 216.484375 173.9375 217.097656 173.144531 Z M 213.0625 207.417969 C 209.402344 205.507812 205.691406 202.847656 202.070312 199.65625 C 201.390625 200.054688 200.601562 200.28125 199.757812 200.28125 C 198.71875 200.28125 197.757812 199.9375 196.988281 199.355469 C 190.800781 202.976562 184.410156 205.628906 178.304688 207.203125 C 178.289062 207.554688 178.238281 207.894531 178.160156 208.226562 L 196.414062 217.957031 C 196.464844 217.898438 196.519531 217.84375 196.574219 217.789062 L 196.578125 217.785156 C 197.550781 216.808594 198.890625 216.207031 200.371094 216.207031 C 200.648438 216.207031 200.921875 216.230469 201.191406 216.269531 C 204.554688 210.449219 209.632812 208.25 213.0625 207.417969 Z M 232.066406 199.671875 C 231.304688 197.804688 230.476562 195.925781 229.597656 194.054688 C 227.773438 190.179688 225.710938 186.332031 223.488281 182.648438 C 223.054688 181.929688 222.617188 181.21875 222.171875 180.515625 C 221.742188 180.644531 221.285156 180.714844 220.8125 180.714844 C 220.226562 180.714844 219.667969 180.609375 219.152344 180.414062 C 217.316406 182.675781 215.363281 184.824219 213.316406 186.84375 C 211.820312 188.320312 210.277344 189.730469 208.6875 191.074219 C 207.234375 192.304688 205.746094 193.476562 204.230469 194.585938 C 204.316406 194.9375 204.359375 195.300781 204.359375 195.671875 C 204.359375 196.398438 204.191406 197.089844 203.890625 197.699219 C 208.332031 201.621094 212.882812 204.679688 217.234375 206.417969 C 219.382812 207.273438 221.484375 207.808594 223.5 207.964844 C 223.773438 207.988281 224.046875 208.003906 224.316406 208.007812 C 225.550781 207.949219 226.945312 207.757812 228.5625 207.371094 C 232.261719 206.484375 232.320312 202.417969 232.066406 199.671875 Z M 231.265625 158.488281 C 230.207031 161.695312 228.910156 164.777344 227.414062 167.722656 C 226.816406 168.902344 226.183594 170.0625 225.523438 171.199219 C 225.207031 171.839844 224.871094 172.484375 224.515625 173.128906 C 225.136719 173.925781 225.507812 174.929688 225.507812 176.015625 C 225.507812 177.164062 225.09375 178.21875 224.410156 179.035156 L 224.429688 179.0625 C 227.488281 183.898438 230.28125 189.0625 232.648438 194.253906 C 233.058594 193.757812 233.472656 193.550781 233.550781 193.515625 C 234.011719 193.277344 234.347656 192.988281 234.566406 192.667969 C 234.773438 192.371094 234.882812 192.039062 234.898438 191.707031 C 234.917969 191.355469 234.835938 190.992188 234.65625 190.640625 C 234.441406 190.210938 234.085938 189.804688 233.601562 189.46875 C 233.347656 189.292969 233.152344 189.027344 233.066406 188.699219 C 232.882812 187.984375 233.3125 187.25 234.027344 187.0625 C 236.179688 186.503906 236.269531 185.085938 235.933594 183.792969 C 235.761719 183.136719 235.488281 182.457031 235.257812 181.882812 C 235.148438 181.609375 235.046875 181.359375 234.960938 181.117188 C 233.941406 178.292969 236.496094 177.035156 239.683594 175.464844 C 240.140625 175.238281 240.617188 175.003906 241.101562 174.753906 C 241.9375 174.320312 242.097656 173.757812 241.882812 173.132812 C 241.511719 172.054688 240.445312 170.746094 239.246094 169.417969 C 237.738281 167.746094 235.652344 165.199219 233.917969 162.757812 C 232.847656 161.246094 231.894531 159.753906 231.265625 158.488281 Z M 224.125 124.183594 C 220.835938 119.910156 216.96875 116.785156 212.742188 114.558594 C 206.105469 111.058594 198.566406 109.753906 191.023438 109.683594 C 190.847656 109.679688 190.5625 109.679688 190.199219 109.679688 C 196.898438 111.566406 203.007812 114.347656 208.308594 117.820312 C 209.15625 118.375 209.980469 118.949219 210.789062 119.539062 C 211.402344 119.183594 212.113281 118.980469 212.875 118.980469 C 214.789062 118.980469 216.40625 120.273438 216.898438 122.039062 C 217.753906 122.144531 218.566406 122.289062 219.347656 122.464844 C 221.128906 122.875 222.714844 123.460938 224.125 124.183594 Z M 229.4375 133 C 229.285156 132.875 229.15625 132.710938 229.070312 132.519531 C 228.980469 132.320312 228.890625 132.125 228.800781 131.929688 C 228.582031 131.59375 228.351562 131.265625 228.105469 130.941406 C 226.101562 128.304688 223.113281 126.085938 218.746094 125.085938 L 218.511719 125.03125 C 217.996094 124.921875 217.464844 124.828125 216.910156 124.75 C 217.488281 125.320312 218.046875 125.902344 218.585938 126.492188 C 221.203125 129.347656 223.417969 132.4375 225.164062 135.703125 C 227.71875 140.46875 229.28125 145.605469 229.675781 150.945312 C 229.753906 151.988281 229.785156 153.039062 229.773438 154.097656 C 230.136719 152.722656 230.457031 151.324219 230.726562 149.90625 C 230.796875 149.515625 230.871094 149.128906 230.9375 148.734375 L 230.953125 148.640625 L 230.960938 148.589844 L 230.96875 148.542969 L 231.046875 148.0625 C 231.054688 148.011719 231.066406 147.960938 231.078125 147.910156 C 231.328125 146.542969 231.5625 145.511719 231.632812 145.214844 C 231.636719 145.1875 231.644531 145.160156 231.648438 145.136719 C 231.730469 144.785156 231.792969 144.347656 231.832031 143.847656 C 231.859375 143.484375 231.875 143.082031 231.875 142.652344 C 231.871094 140.003906 231.273438 136.34375 229.4375 133 Z M 173.214844 123.578125 C 174.929688 123.578125 176.410156 124.59375 177.082031 126.0625 C 177.660156 126.015625 178.238281 125.980469 178.8125 125.953125 C 182.882812 125.761719 186.871094 125.980469 190.71875 126.546875 C 191.171875 125.492188 191.890625 124.585938 192.789062 123.902344 C 190.085938 119.277344 186.832031 115.378906 183.160156 112.429688 C 182.246094 113.222656 181.054688 113.699219 179.753906 113.699219 C 176.878906 113.699219 174.550781 111.367188 174.550781 108.488281 C 174.550781 105.609375 176.878906 103.277344 179.753906 103.277344 C 182.125 103.277344 184.125 104.863281 184.753906 107.03125 C 187.414062 107.003906 190.25 106.992188 191.046875 107 C 198.980469 107.074219 206.941406 108.460938 213.992188 112.179688 C 220.902344 115.820312 226.921875 121.675781 231.175781 130.675781 C 231.316406 130.898438 231.449219 131.117188 231.578125 131.34375 C 233.824219 135.238281 234.550781 139.558594 234.554688 142.652344 C 234.554688 143.894531 234.441406 144.957031 234.261719 145.734375 C 234.257812 145.765625 234.25 145.792969 234.242188 145.820312 C 234.179688 146.089844 233.949219 147.082031 233.707031 148.378906 C 233.703125 148.414062 233.699219 148.449219 233.695312 148.484375 C 233.597656 149.078125 233.496094 149.667969 233.386719 150.253906 C 233.035156 152.585938 232.8125 155.210938 233.316406 156.507812 C 233.777344 157.710938 234.84375 159.421875 236.105469 161.199219 C 237.789062 163.578125 239.792969 166.023438 241.230469 167.617188 C 242.644531 169.179688 243.914062 170.761719 244.425781 172.257812 C 245.097656 174.214844 244.6875 175.921875 242.332031 177.140625 C 241.839844 177.394531 241.347656 177.636719 240.871094 177.871094 C 238.878906 178.855469 237.277344 179.644531 237.480469 180.203125 C 237.546875 180.386719 237.644531 180.625 237.746094 180.882812 C 238.003906 181.523438 238.308594 182.28125 238.527344 183.117188 C 239.074219 185.21875 239.054688 187.480469 236.71875 188.859375 C 236.84375 189.046875 236.957031 189.238281 237.054688 189.429688 C 237.441406 190.195312 237.621094 191.019531 237.578125 191.832031 C 237.539062 192.660156 237.273438 193.472656 236.773438 194.195312 C 236.300781 194.878906 235.621094 195.476562 234.730469 195.925781 L 234.6875 195.949219 C 234.6875 195.949219 234.433594 196.042969 234.488281 197.117188 C 234.496094 197.292969 234.539062 197.644531 234.59375 198.070312 C 234.996094 201.355469 235.855469 208.382812 229.183594 209.980469 C 225.421875 210.878906 222.710938 210.839844 220.566406 210.515625 C 219.375 210.335938 218.363281 210.070312 217.441406 209.824219 C 217.164062 209.753906 216.894531 209.683594 216.601562 209.609375 C 216.375 209.617188 215.890625 209.640625 215.230469 209.730469 C 214.507812 209.832031 213.570312 210.015625 212.523438 210.351562 C 209.761719 211.230469 206.214844 213.15625 203.679688 217.355469 C 203.847656 217.488281 204.011719 217.628906 204.164062 217.785156 L 204.167969 217.785156 L 204.167969 217.789062 C 205.140625 218.765625 205.742188 220.105469 205.742188 221.585938 C 205.742188 223.066406 205.140625 224.410156 204.167969 225.382812 L 204.167969 225.386719 L 204.164062 225.390625 C 203.191406 226.363281 201.847656 226.964844 200.371094 226.964844 C 198.890625 226.964844 197.550781 226.363281 196.578125 225.390625 L 196.574219 225.386719 C 195.601562 224.410156 195 223.070312 195 221.585938 C 195 221.152344 195.050781 220.726562 195.148438 220.324219 L 176.898438 210.59375 C 176.84375 210.648438 176.792969 210.703125 176.734375 210.757812 L 176.734375 210.761719 L 176.730469 210.765625 C 175.757812 211.738281 174.414062 212.339844 172.9375 212.339844 C 171.457031 212.339844 170.117188 211.738281 169.144531 210.765625 L 169.140625 210.761719 C 168.167969 209.785156 167.566406 208.441406 167.566406 206.960938 C 167.566406 205.480469 168.167969 204.136719 169.140625 203.164062 L 169.144531 203.15625 C 170.117188 202.183594 171.457031 201.582031 172.9375 201.582031 C 174.085938 201.582031 175.152344 201.945312 176.027344 202.566406 C 180.96875 198.039062 185.71875 192.453125 189.722656 186.3125 C 184.136719 179.074219 179.335938 171.011719 176.101562 163.332031 C 175.277344 161.371094 174.554688 159.433594 173.945312 157.542969 C 173.859375 157.546875 173.769531 157.546875 173.679688 157.546875 C 170.148438 157.546875 167.285156 154.679688 167.285156 151.144531 C 167.285156 147.609375 170.148438 144.742188 173.679688 144.742188 C 174.464844 144.742188 175.21875 144.886719 175.914062 145.144531 C 176.449219 144.421875 177.003906 143.714844 177.574219 143.019531 C 180.445312 139.53125 183.777344 136.40625 187.292969 133.691406 C 188.066406 133.097656 188.84375 132.519531 189.632812 131.964844 C 189.945312 131.742188 190.261719 131.523438 190.578125 131.308594 C 190.339844 130.644531 190.207031 129.929688 190.199219 129.183594 C 186.457031 128.644531 182.574219 128.449219 178.617188 128.65625 C 178.203125 128.675781 177.785156 128.703125 177.371094 128.734375 C 176.957031 130.652344 175.253906 132.089844 173.214844 132.089844 C 170.867188 132.089844 168.964844 130.183594 168.964844 127.832031 C 168.964844 125.480469 170.867188 123.574219 173.214844 123.574219 Z M 173.214844 123.578125 " clip-rule="evenodd"/></clipPath><linearGradient x1="-587.405505" gradientTransform="matrix(0.0192325, 0, 0, 0.0192591, 115.716021, 103.275758)" y1="5293.805265" x2="7320.490454" gradientUnits="userSpaceOnUse" y2="1177.901009" id="533e5d5c2b"><stop stop-opacity="1" stop-color="rgb(25.489807%, 74.508667%, 91.758728%)" offset="0"/><stop stop-opacity="1" stop-color="rgb(25.489807%, 74.508667%, 91.758728%)" offset="0.25"/><stop stop-opacity="1" stop-color="rgb(25.489807%, 74.508667%, 91.758728%)" offset="0.332606"/><stop stop-opacity="1" stop-color="rgb(25.489807%, 74.508667%, 91.758728%)" offset="0.375"/><stop stop-opacity="1" stop-color="rgb(25.489807%, 74.508667%, 91.758728%)" offset="0.4375"/><stop stop-opacity="1" stop-color="rgb(25.486755%, 74.497986%, 91.751099%)" offset="0.453125"/><stop stop-opacity="1" stop-color="rgb(25.431824%, 74.191284%, 91.542053%)" offset="0.457031"/><stop stop-opacity="1" stop-color="rgb(25.378418%, 73.893738%, 91.340637%)" offset="0.460938"/><stop stop-opacity="1" stop-color="rgb(25.325012%, 73.596191%, 91.137695%)" offset="0.464844"/><stop stop-opacity="1" stop-color="rgb(25.271606%, 73.298645%, 90.936279%)" offset="0.46875"/><stop stop-opacity="1" stop-color="rgb(25.218201%, 73.001099%, 90.733337%)" offset="0.472656"/><stop stop-opacity="1" stop-color="rgb(25.164795%, 72.703552%, 90.531921%)" offset="0.476562"/><stop stop-opacity="1" stop-color="rgb(25.109863%, 72.406006%, 90.328979%)" offset="0.480469"/><stop stop-opacity="1" stop-color="rgb(25.056458%, 72.108459%, 90.127563%)" offset="0.484375"/><stop stop-opacity="1" stop-color="rgb(25.003052%, 71.810913%, 89.924622%)" offset="0.488281"/><stop stop-opacity="1" stop-color="rgb(24.949646%, 71.513367%, 89.723206%)" offset="0.492188"/><stop stop-opacity="1" stop-color="rgb(24.89624%, 71.21582%, 89.520264%)" offset="0.496094"/><stop stop-opacity="1" stop-color="rgb(24.842834%, 70.918274%, 89.317322%)" offset="0.5"/><stop stop-opacity="1" stop-color="rgb(24.789429%, 70.620728%, 89.11438%)" offset="0.503906"/><stop stop-opacity="1" stop-color="rgb(24.736023%, 70.323181%, 88.912964%)" offset="0.507812"/><stop stop-opacity="1" stop-color="rgb(24.682617%, 70.025635%, 88.710022%)" offset="0.511719"/><stop stop-opacity="1" stop-color="rgb(24.629211%, 69.728088%, 88.508606%)" offset="0.515625"/><stop stop-opacity="1" stop-color="rgb(24.57428%, 69.430542%, 88.305664%)" offset="0.519531"/><stop stop-opacity="1" stop-color="rgb(24.520874%, 69.132996%, 88.104248%)" offset="0.523438"/><stop stop-opacity="1" stop-color="rgb(24.467468%, 68.835449%, 87.901306%)" offset="0.527344"/><stop stop-opacity="1" stop-color="rgb(24.414062%, 68.537903%, 87.69989%)" offset="0.53125"/><stop stop-opacity="1" stop-color="rgb(24.360657%, 68.240356%, 87.496948%)" offset="0.535156"/><stop stop-opacity="1" stop-color="rgb(24.307251%, 67.94281%, 87.295532%)" offset="0.539062"/><stop stop-opacity="1" stop-color="rgb(24.253845%, 67.645264%, 87.09259%)" offset="0.542969"/><stop stop-opacity="1" stop-color="rgb(24.200439%, 67.347717%, 86.891174%)" offset="0.546875"/><stop stop-opacity="1" stop-color="rgb(24.145508%, 67.050171%, 86.688232%)" offset="0.550781"/><stop stop-opacity="1" stop-color="rgb(24.092102%, 66.752625%, 86.486816%)" offset="0.554688"/><stop stop-opacity="1" stop-color="rgb(24.038696%, 66.455078%, 86.283875%)" offset="0.558594"/><stop stop-opacity="1" stop-color="rgb(23.985291%, 66.157532%, 86.082458%)" offset="0.5625"/><stop stop-opacity="1" stop-color="rgb(23.931885%, 65.859985%, 85.879517%)" offset="0.566406"/><stop stop-opacity="1" stop-color="rgb(23.878479%, 65.562439%, 85.676575%)" offset="0.570312"/><stop stop-opacity="1" stop-color="rgb(23.825073%, 65.264893%, 85.473633%)" offset="0.574219"/><stop stop-opacity="1" stop-color="rgb(23.771667%, 64.967346%, 85.272217%)" offset="0.578125"/><stop stop-opacity="1" stop-color="rgb(23.718262%, 64.6698%, 85.069275%)" offset="0.582031"/><stop stop-opacity="1" stop-color="rgb(23.664856%, 64.372253%, 84.867859%)" offset="0.585938"/><stop stop-opacity="1" stop-color="rgb(23.609924%, 64.074707%, 84.664917%)" offset="0.589844"/><stop stop-opacity="1" stop-color="rgb(23.556519%, 63.777161%, 84.463501%)" offset="0.59375"/><stop stop-opacity="1" stop-color="rgb(23.503113%, 63.478088%, 84.260559%)" offset="0.597656"/><stop stop-opacity="1" stop-color="rgb(23.449707%, 63.180542%, 84.059143%)" offset="0.601562"/><stop stop-opacity="1" stop-color="rgb(23.396301%, 62.882996%, 83.856201%)" offset="0.605469"/><stop stop-opacity="1" stop-color="rgb(23.342896%, 62.585449%, 83.654785%)" offset="0.609375"/><stop stop-opacity="1" stop-color="rgb(23.28949%, 62.287903%, 83.451843%)" offset="0.613281"/><stop stop-opacity="1" stop-color="rgb(23.236084%, 61.990356%, 83.250427%)" offset="0.617188"/><stop stop-opacity="1" stop-color="rgb(23.182678%, 61.69281%, 83.047485%)" offset="0.621094"/><stop stop-opacity="1" stop-color="rgb(23.129272%, 61.395264%, 82.846069%)" offset="0.625"/><stop stop-opacity="1" stop-color="rgb(23.074341%, 61.097717%, 82.643127%)" offset="0.628906"/><stop stop-opacity="1" stop-color="rgb(23.020935%, 60.800171%, 82.440186%)" offset="0.632812"/><stop stop-opacity="1" stop-color="rgb(22.967529%, 60.502625%, 82.237244%)" offset="0.636719"/><stop stop-opacity="1" stop-color="rgb(22.914124%, 60.205078%, 82.035828%)" offset="0.640625"/><stop stop-opacity="1" stop-color="rgb(22.860718%, 59.907532%, 81.832886%)" offset="0.644531"/><stop stop-opacity="1" stop-color="rgb(22.807312%, 59.609985%, 81.63147%)" offset="0.648438"/><stop stop-opacity="1" stop-color="rgb(22.753906%, 59.312439%, 81.428528%)" offset="0.652344"/><stop stop-opacity="1" stop-color="rgb(22.7005%, 59.014893%, 81.227112%)" offset="0.65625"/><stop stop-opacity="1" stop-color="rgb(22.647095%, 58.717346%, 81.02417%)" offset="0.660156"/><stop stop-opacity="1" stop-color="rgb(22.593689%, 58.4198%, 80.822754%)" offset="0.664062"/><stop stop-opacity="1" stop-color="rgb(22.538757%, 58.122253%, 80.619812%)" offset="0.667969"/><stop stop-opacity="1" stop-color="rgb(22.485352%, 57.824707%, 80.418396%)" offset="0.671875"/><stop stop-opacity="1" stop-color="rgb(22.431946%, 57.527161%, 80.215454%)" offset="0.675781"/><stop stop-opacity="1" stop-color="rgb(22.37854%, 57.229614%, 80.014038%)" offset="0.679688"/><stop stop-opacity="1" stop-color="rgb(22.325134%, 56.932068%, 79.811096%)" offset="0.683594"/><stop stop-opacity="1" stop-color="rgb(22.271729%, 56.634521%, 79.60968%)" offset="0.6875"/><stop stop-opacity="1" stop-color="rgb(22.218323%, 56.336975%, 79.406738%)" offset="0.691406"/><stop stop-opacity="1" stop-color="rgb(22.164917%, 56.039429%, 79.205322%)" offset="0.695312"/><stop stop-opacity="1" stop-color="rgb(22.111511%, 55.741882%, 79.00238%)" offset="0.699219"/><stop stop-opacity="1" stop-color="rgb(22.058105%, 55.444336%, 78.799438%)" offset="0.703125"/><stop stop-opacity="1" stop-color="rgb(21.998596%, 55.119324%, 78.579712%)" offset="0.707031"/><stop stop-opacity="1" stop-color="rgb(21.939087%, 54.795837%, 78.359985%)" offset="0.710938"/><stop stop-opacity="1" stop-color="rgb(21.817017%, 54.176331%, 77.947998%)" offset="0.714844"/><stop stop-opacity="1" stop-color="rgb(21.696472%, 53.55835%, 77.536011%)" offset="0.71875"/><stop stop-opacity="1" stop-color="rgb(21.574402%, 52.938843%, 77.122498%)" offset="0.722656"/><stop stop-opacity="1" stop-color="rgb(21.453857%, 52.320862%, 76.71051%)" offset="0.726562"/><stop stop-opacity="1" stop-color="rgb(21.331787%, 51.701355%, 76.296997%)" offset="0.730469"/><stop stop-opacity="1" stop-color="rgb(21.211243%, 51.081848%, 75.88501%)" offset="0.734375"/><stop stop-opacity="1" stop-color="rgb(21.089172%, 50.462341%, 75.471497%)" offset="0.738281"/><stop stop-opacity="1" stop-color="rgb(20.968628%, 49.84436%, 75.059509%)" offset="0.742187"/><stop stop-opacity="1" stop-color="rgb(20.846558%, 49.224854%, 74.647522%)" offset="0.746094"/><stop stop-opacity="1" stop-color="rgb(20.726013%, 48.606873%, 74.235535%)" offset="0.75"/><stop stop-opacity="1" stop-color="rgb(20.603943%, 47.987366%, 73.822021%)" offset="0.753906"/><stop stop-opacity="1" stop-color="rgb(20.483398%, 47.367859%, 73.410034%)" offset="0.757812"/><stop stop-opacity="1" stop-color="rgb(20.361328%, 46.748352%, 72.996521%)" offset="0.761719"/><stop stop-opacity="1" stop-color="rgb(20.240784%, 46.130371%, 72.584534%)" offset="0.765625"/><stop stop-opacity="1" stop-color="rgb(20.118713%, 45.510864%, 72.172546%)" offset="0.769531"/><stop stop-opacity="1" stop-color="rgb(19.998169%, 44.892883%, 71.760559%)" offset="0.773438"/><stop stop-opacity="1" stop-color="rgb(19.876099%, 44.273376%, 71.347046%)" offset="0.777344"/><stop stop-opacity="1" stop-color="rgb(19.755554%, 43.655396%, 70.935059%)" offset="0.78125"/><stop stop-opacity="1" stop-color="rgb(19.633484%, 43.035889%, 70.521545%)" offset="0.785156"/><stop stop-opacity="1" stop-color="rgb(19.512939%, 42.416382%, 70.109558%)" offset="0.789062"/><stop stop-opacity="1" stop-color="rgb(19.390869%, 41.796875%, 69.696045%)" offset="0.792969"/><stop stop-opacity="1" stop-color="rgb(19.270325%, 41.178894%, 69.284058%)" offset="0.796875"/><stop stop-opacity="1" stop-color="rgb(19.148254%, 40.559387%, 68.87207%)" offset="0.800781"/><stop stop-opacity="1" stop-color="rgb(19.02771%, 39.941406%, 68.460083%)" offset="0.804688"/><stop stop-opacity="1" stop-color="rgb(18.90564%, 39.321899%, 68.04657%)" offset="0.808594"/><stop stop-opacity="1" stop-color="rgb(18.785095%, 38.703918%, 67.634583%)" offset="0.8125"/><stop stop-opacity="1" stop-color="rgb(18.663025%, 38.084412%, 67.221069%)" offset="0.816406"/><stop stop-opacity="1" stop-color="rgb(18.54248%, 37.464905%, 66.809082%)" offset="0.820312"/><stop stop-opacity="1" stop-color="rgb(18.42041%, 36.845398%, 66.397095%)" offset="0.824219"/><stop stop-opacity="1" stop-color="rgb(18.299866%, 36.227417%, 65.985107%)" offset="0.828125"/><stop stop-opacity="1" stop-color="rgb(18.177795%, 35.60791%, 65.571594%)" offset="0.832031"/><stop stop-opacity="1" stop-color="rgb(18.057251%, 34.989929%, 65.159607%)" offset="0.835937"/><stop stop-opacity="1" stop-color="rgb(18.048096%, 34.944153%, 65.129089%)" offset="0.84375"/><stop stop-opacity="1" stop-color="rgb(18.03894%, 34.899902%, 65.098572%)" offset="0.875"/><stop stop-opacity="1" stop-color="rgb(18.03894%, 34.899902%, 65.098572%)" offset="1"/></linearGradient><clipPath id="86d5b706d1"><path d="M 0 178.902344 L 375 178.902344 L 375 301.902344 L 0 301.902344 Z M 0 178.902344 " clip-rule="nonzero"/></clipPath><clipPath id="47e27767a9"><path d="M 0 0.902344 L 375 0.902344 L 375 123.902344 L 0 123.902344 Z M 0 0.902344 " clip-rule="nonzero"/></clipPath><clipPath id="47ef73bf48"><path d="M 44.085938 2.402344 L 332.074219 2.402344 L 332.074219 120.902344 L 44.085938 120.902344 Z M 44.085938 2.402344 " clip-rule="nonzero"/></clipPath><linearGradient x1="7.987" gradientTransform="matrix(0.749947, 0, 0, 0.74795, 38.096765, 46.319024)" y1="20.5" x2="391.99799" gradientUnits="userSpaceOnUse" y2="20.5" id="caa62103dc"><stop stop-opacity="1" stop-color="rgb(36.468506%, 87.838745%, 90.19928%)" offset="0"/><stop stop-opacity="1" stop-color="rgb(36.468506%, 87.838745%, 90.19928%)" offset="0.125"/><stop stop-opacity="1" stop-color="rgb(36.468506%, 87.838745%, 90.19928%)" offset="0.15625"/><stop stop-opacity="1" stop-color="rgb(36.309814%, 87.582397%, 90.101624%)" offset="0.160156"/><stop stop-opacity="1" stop-color="rgb(36.151123%, 87.327576%, 90.003967%)" offset="0.164062"/><stop stop-opacity="1" stop-color="rgb(35.942078%, 86.990356%, 89.875793%)" offset="0.167969"/><stop stop-opacity="1" stop-color="rgb(35.734558%, 86.654663%, 89.749146%)" offset="0.171875"/><stop stop-opacity="1" stop-color="rgb(35.525513%, 86.31897%, 89.620972%)" offset="0.175781"/><stop stop-opacity="1" stop-color="rgb(35.317993%, 85.983276%, 89.494324%)" offset="0.179688"/><stop stop-opacity="1" stop-color="rgb(35.108948%, 85.646057%, 89.36615%)" offset="0.183594"/><stop stop-opacity="1" stop-color="rgb(34.901428%, 85.310364%, 89.237976%)" offset="0.1875"/><stop stop-opacity="1" stop-color="rgb(34.692383%, 84.97467%, 89.109802%)" offset="0.191406"/><stop stop-opacity="1" stop-color="rgb(34.484863%, 84.638977%, 88.983154%)" offset="0.195313"/><stop stop-opacity="1" stop-color="rgb(34.275818%, 84.303284%, 88.85498%)" offset="0.199219"/><stop stop-opacity="1" stop-color="rgb(34.068298%, 83.96759%, 88.726807%)" offset="0.203125"/><stop stop-opacity="1" stop-color="rgb(33.859253%, 83.630371%, 88.598633%)" offset="0.207031"/><stop stop-opacity="1" stop-color="rgb(33.651733%, 83.294678%, 88.471985%)" offset="0.210938"/><stop stop-opacity="1" stop-color="rgb(33.442688%, 82.958984%, 88.343811%)" offset="0.214844"/><stop stop-opacity="1" stop-color="rgb(33.235168%, 82.623291%, 88.215637%)" offset="0.21875"/><stop stop-opacity="1" stop-color="rgb(33.026123%, 82.286072%, 88.087463%)" offset="0.222656"/><stop stop-opacity="1" stop-color="rgb(32.818604%, 81.950378%, 87.960815%)" offset="0.226563"/><stop stop-opacity="1" stop-color="rgb(32.609558%, 81.614685%, 87.832642%)" offset="0.230469"/><stop stop-opacity="1" stop-color="rgb(32.402039%, 81.278992%, 87.705994%)" offset="0.234375"/><stop stop-opacity="1" stop-color="rgb(32.192993%, 80.941772%, 87.57782%)" offset="0.238281"/><stop stop-opacity="1" stop-color="rgb(31.985474%, 80.606079%, 87.449646%)" offset="0.242188"/><stop stop-opacity="1" stop-color="rgb(31.776428%, 80.270386%, 87.321472%)" offset="0.246094"/><stop stop-opacity="1" stop-color="rgb(31.568909%, 79.934692%, 87.194824%)" offset="0.25"/><stop stop-opacity="1" stop-color="rgb(31.359863%, 79.598999%, 87.06665%)" offset="0.253906"/><stop stop-opacity="1" stop-color="rgb(31.150818%, 79.263306%, 86.938477%)" offset="0.257812"/><stop stop-opacity="1" stop-color="rgb(30.941772%, 78.926086%, 86.810303%)" offset="0.261719"/><stop stop-opacity="1" stop-color="rgb(30.734253%, 78.590393%, 86.683655%)" offset="0.265625"/><stop stop-opacity="1" stop-color="rgb(30.525208%, 78.2547%, 86.555481%)" offset="0.269531"/><stop stop-opacity="1" stop-color="rgb(30.317688%, 77.919006%, 86.427307%)" offset="0.273438"/><stop stop-opacity="1" stop-color="rgb(30.108643%, 77.581787%, 86.299133%)" offset="0.277344"/><stop stop-opacity="1" stop-color="rgb(29.901123%, 77.246094%, 86.172485%)" offset="0.28125"/><stop stop-opacity="1" stop-color="rgb(29.692078%, 76.9104%, 86.044312%)" offset="0.285156"/><stop stop-opacity="1" stop-color="rgb(29.484558%, 76.574707%, 85.917664%)" offset="0.289062"/><stop stop-opacity="1" stop-color="rgb(29.275513%, 76.237488%, 85.78949%)" offset="0.292969"/><stop stop-opacity="1" stop-color="rgb(29.067993%, 75.901794%, 85.661316%)" offset="0.296875"/><stop stop-opacity="1" stop-color="rgb(28.858948%, 75.566101%, 85.533142%)" offset="0.300781"/><stop stop-opacity="1" stop-color="rgb(28.651428%, 75.230408%, 85.406494%)" offset="0.304688"/><stop stop-opacity="1" stop-color="rgb(28.442383%, 74.894714%, 85.27832%)" offset="0.308594"/><stop stop-opacity="1" stop-color="rgb(28.234863%, 74.559021%, 85.150146%)" offset="0.3125"/><stop stop-opacity="1" stop-color="rgb(28.025818%, 74.221802%, 85.021973%)" offset="0.316406"/><stop stop-opacity="1" stop-color="rgb(27.818298%, 73.886108%, 84.895325%)" offset="0.320312"/><stop stop-opacity="1" stop-color="rgb(27.609253%, 73.550415%, 84.767151%)" offset="0.324219"/><stop stop-opacity="1" stop-color="rgb(27.401733%, 73.214722%, 84.638977%)" offset="0.328125"/><stop stop-opacity="1" stop-color="rgb(27.192688%, 72.877502%, 84.510803%)" offset="0.332031"/><stop stop-opacity="1" stop-color="rgb(26.985168%, 72.541809%, 84.384155%)" offset="0.335938"/><stop stop-opacity="1" stop-color="rgb(26.776123%, 72.206116%, 84.255981%)" offset="0.339844"/><stop stop-opacity="1" stop-color="rgb(26.568604%, 71.870422%, 84.129333%)" offset="0.34375"/><stop stop-opacity="1" stop-color="rgb(26.359558%, 71.533203%, 84.00116%)" offset="0.347656"/><stop stop-opacity="1" stop-color="rgb(26.150513%, 71.19751%, 83.872986%)" offset="0.351563"/><stop stop-opacity="1" stop-color="rgb(25.941467%, 70.861816%, 83.744812%)" offset="0.355469"/><stop stop-opacity="1" stop-color="rgb(25.733948%, 70.526123%, 83.618164%)" offset="0.359375"/><stop stop-opacity="1" stop-color="rgb(25.524902%, 70.188904%, 83.48999%)" offset="0.363281"/><stop stop-opacity="1" stop-color="rgb(25.317383%, 69.85321%, 83.361816%)" offset="0.367188"/><stop stop-opacity="1" stop-color="rgb(25.108337%, 69.517517%, 83.233643%)" offset="0.371094"/><stop stop-opacity="1" stop-color="rgb(24.900818%, 69.181824%, 83.106995%)" offset="0.375"/><stop stop-opacity="1" stop-color="rgb(24.691772%, 68.84613%, 82.978821%)" offset="0.378906"/><stop stop-opacity="1" stop-color="rgb(24.484253%, 68.510437%, 82.850647%)" offset="0.382812"/><stop stop-opacity="1" stop-color="rgb(24.275208%, 68.173218%, 82.722473%)" offset="0.386719"/><stop stop-opacity="1" stop-color="rgb(24.067688%, 67.837524%, 82.595825%)" offset="0.390625"/><stop stop-opacity="1" stop-color="rgb(23.858643%, 67.501831%, 82.467651%)" offset="0.394531"/><stop stop-opacity="1" stop-color="rgb(23.651123%, 67.166138%, 82.341003%)" offset="0.398438"/><stop stop-opacity="1" stop-color="rgb(23.442078%, 66.828918%, 82.21283%)" offset="0.402344"/><stop stop-opacity="1" stop-color="rgb(23.234558%, 66.493225%, 82.084656%)" offset="0.40625"/><stop stop-opacity="1" stop-color="rgb(23.025513%, 66.157532%, 81.956482%)" offset="0.410156"/><stop stop-opacity="1" stop-color="rgb(22.817993%, 65.821838%, 81.829834%)" offset="0.414063"/><stop stop-opacity="1" stop-color="rgb(22.608948%, 65.484619%, 81.70166%)" offset="0.417969"/><stop stop-opacity="1" stop-color="rgb(22.401428%, 65.148926%, 81.573486%)" offset="0.421875"/><stop stop-opacity="1" stop-color="rgb(22.192383%, 64.813232%, 81.445312%)" offset="0.425781"/><stop stop-opacity="1" stop-color="rgb(21.984863%, 64.477539%, 81.318665%)" offset="0.429688"/><stop stop-opacity="1" stop-color="rgb(21.775818%, 64.141846%, 81.190491%)" offset="0.433594"/><stop stop-opacity="1" stop-color="rgb(21.568298%, 63.806152%, 81.062317%)" offset="0.4375"/><stop stop-opacity="1" stop-color="rgb(21.359253%, 63.468933%, 80.934143%)" offset="0.441406"/><stop stop-opacity="1" stop-color="rgb(21.151733%, 63.13324%, 80.807495%)" offset="0.445312"/><stop stop-opacity="1" stop-color="rgb(20.942688%, 62.797546%, 80.679321%)" offset="0.449219"/><stop stop-opacity="1" stop-color="rgb(20.733643%, 62.461853%, 80.552673%)" offset="0.453125"/><stop stop-opacity="1" stop-color="rgb(20.524597%, 62.124634%, 80.4245%)" offset="0.457031"/><stop stop-opacity="1" stop-color="rgb(20.317078%, 61.78894%, 80.296326%)" offset="0.460938"/><stop stop-opacity="1" stop-color="rgb(20.108032%, 61.453247%, 80.168152%)" offset="0.464844"/><stop stop-opacity="1" stop-color="rgb(19.900513%, 61.117554%, 80.041504%)" offset="0.46875"/><stop stop-opacity="1" stop-color="rgb(19.691467%, 60.780334%, 79.91333%)" offset="0.472656"/><stop stop-opacity="1" stop-color="rgb(19.483948%, 60.444641%, 79.785156%)" offset="0.476562"/><stop stop-opacity="1" stop-color="rgb(19.274902%, 60.108948%, 79.656982%)" offset="0.480469"/><stop stop-opacity="1" stop-color="rgb(19.067383%, 59.773254%, 79.530334%)" offset="0.484375"/><stop stop-opacity="1" stop-color="rgb(18.858337%, 59.437561%, 79.402161%)" offset="0.488281"/><stop stop-opacity="1" stop-color="rgb(18.650818%, 59.101868%, 79.273987%)" offset="0.492188"/><stop stop-opacity="1" stop-color="rgb(18.441772%, 58.764648%, 79.145813%)" offset="0.496094"/><stop stop-opacity="1" stop-color="rgb(18.234253%, 58.428955%, 79.019165%)" offset="0.5"/><stop stop-opacity="1" stop-color="rgb(18.025208%, 58.093262%, 78.890991%)" offset="0.503906"/><stop stop-opacity="1" stop-color="rgb(17.817688%, 57.757568%, 78.764343%)" offset="0.507813"/><stop stop-opacity="1" stop-color="rgb(17.608643%, 57.420349%, 78.636169%)" offset="0.511719"/><stop stop-opacity="1" stop-color="rgb(17.401123%, 57.084656%, 78.507996%)" offset="0.515625"/><stop stop-opacity="1" stop-color="rgb(17.192078%, 56.748962%, 78.379822%)" offset="0.519531"/><stop stop-opacity="1" stop-color="rgb(16.984558%, 56.413269%, 78.253174%)" offset="0.523438"/><stop stop-opacity="1" stop-color="rgb(16.775513%, 56.07605%, 78.125%)" offset="0.527344"/><stop stop-opacity="1" stop-color="rgb(16.567993%, 55.740356%, 77.996826%)" offset="0.53125"/><stop stop-opacity="1" stop-color="rgb(16.358948%, 55.404663%, 77.868652%)" offset="0.535156"/><stop stop-opacity="1" stop-color="rgb(16.151428%, 55.06897%, 77.742004%)" offset="0.539062"/><stop stop-opacity="1" stop-color="rgb(15.942383%, 54.733276%, 77.613831%)" offset="0.542969"/><stop stop-opacity="1" stop-color="rgb(15.733337%, 54.397583%, 77.485657%)" offset="0.546875"/><stop stop-opacity="1" stop-color="rgb(15.524292%, 54.060364%, 77.357483%)" offset="0.550781"/><stop stop-opacity="1" stop-color="rgb(15.316772%, 53.72467%, 77.230835%)" offset="0.554688"/><stop stop-opacity="1" stop-color="rgb(15.107727%, 53.388977%, 77.102661%)" offset="0.558594"/><stop stop-opacity="1" stop-color="rgb(14.900208%, 53.053284%, 76.976013%)" offset="0.5625"/><stop stop-opacity="1" stop-color="rgb(14.691162%, 52.716064%, 76.847839%)" offset="0.566406"/><stop stop-opacity="1" stop-color="rgb(14.483643%, 52.380371%, 76.719666%)" offset="0.570313"/><stop stop-opacity="1" stop-color="rgb(14.274597%, 52.044678%, 76.591492%)" offset="0.574219"/><stop stop-opacity="1" stop-color="rgb(14.067078%, 51.708984%, 76.464844%)" offset="0.578125"/><stop stop-opacity="1" stop-color="rgb(13.858032%, 51.371765%, 76.33667%)" offset="0.582031"/><stop stop-opacity="1" stop-color="rgb(13.650513%, 51.036072%, 76.208496%)" offset="0.585938"/><stop stop-opacity="1" stop-color="rgb(13.441467%, 50.700378%, 76.080322%)" offset="0.589844"/><stop stop-opacity="1" stop-color="rgb(13.233948%, 50.364685%, 75.953674%)" offset="0.59375"/><stop stop-opacity="1" stop-color="rgb(13.024902%, 50.027466%, 75.8255%)" offset="0.597656"/><stop stop-opacity="1" stop-color="rgb(12.817383%, 49.691772%, 75.697327%)" offset="0.601562"/><stop stop-opacity="1" stop-color="rgb(12.608337%, 49.356079%, 75.569153%)" offset="0.605469"/><stop stop-opacity="1" stop-color="rgb(12.400818%, 49.020386%, 75.442505%)" offset="0.609375"/><stop stop-opacity="1" stop-color="rgb(12.191772%, 48.684692%, 75.314331%)" offset="0.613281"/><stop stop-opacity="1" stop-color="rgb(11.984253%, 48.348999%, 75.187683%)" offset="0.617188"/><stop stop-opacity="1" stop-color="rgb(11.775208%, 48.01178%, 75.059509%)" offset="0.621094"/><stop stop-opacity="1" stop-color="rgb(11.567688%, 47.676086%, 74.931335%)" offset="0.625"/><stop stop-opacity="1" stop-color="rgb(11.358643%, 47.340393%, 74.803162%)" offset="0.628906"/><stop stop-opacity="1" stop-color="rgb(11.151123%, 47.0047%, 74.676514%)" offset="0.632812"/><stop stop-opacity="1" stop-color="rgb(10.942078%, 46.66748%, 74.54834%)" offset="0.636719"/><stop stop-opacity="1" stop-color="rgb(10.733032%, 46.331787%, 74.420166%)" offset="0.640625"/><stop stop-opacity="1" stop-color="rgb(10.523987%, 45.996094%, 74.291992%)" offset="0.644531"/><stop stop-opacity="1" stop-color="rgb(10.316467%, 45.6604%, 74.165344%)" offset="0.648438"/><stop stop-opacity="1" stop-color="rgb(10.107422%, 45.323181%, 74.03717%)" offset="0.652344"/><stop stop-opacity="1" stop-color="rgb(9.899902%, 44.987488%, 73.908997%)" offset="0.65625"/><stop stop-opacity="1" stop-color="rgb(9.690857%, 44.651794%, 73.780823%)" offset="0.660156"/><stop stop-opacity="1" stop-color="rgb(9.483337%, 44.316101%, 73.654175%)" offset="0.664063"/><stop stop-opacity="1" stop-color="rgb(9.274292%, 43.980408%, 73.526001%)" offset="0.667969"/><stop stop-opacity="1" stop-color="rgb(9.066772%, 43.644714%, 73.399353%)" offset="0.671875"/><stop stop-opacity="1" stop-color="rgb(8.857727%, 43.307495%, 73.271179%)" offset="0.675781"/><stop stop-opacity="1" stop-color="rgb(8.650208%, 42.971802%, 73.143005%)" offset="0.679688"/><stop stop-opacity="1" stop-color="rgb(8.441162%, 42.636108%, 73.014832%)" offset="0.683594"/><stop stop-opacity="1" stop-color="rgb(8.233643%, 42.300415%, 72.888184%)" offset="0.6875"/><stop stop-opacity="1" stop-color="rgb(8.024597%, 41.963196%, 72.76001%)" offset="0.691406"/><stop stop-opacity="1" stop-color="rgb(7.817078%, 41.627502%, 72.631836%)" offset="0.695312"/><stop stop-opacity="1" stop-color="rgb(7.608032%, 41.291809%, 72.503662%)" offset="0.699219"/><stop stop-opacity="1" stop-color="rgb(7.400513%, 40.956116%, 72.377014%)" offset="0.703125"/><stop stop-opacity="1" stop-color="rgb(7.191467%, 40.618896%, 72.24884%)" offset="0.707031"/><stop stop-opacity="1" stop-color="rgb(6.983948%, 40.283203%, 72.120667%)" offset="0.710938"/><stop stop-opacity="1" stop-color="rgb(6.774902%, 39.94751%, 71.992493%)" offset="0.714844"/><stop stop-opacity="1" stop-color="rgb(6.567383%, 39.611816%, 71.865845%)" offset="0.71875"/><stop stop-opacity="1" stop-color="rgb(6.358337%, 39.276123%, 71.737671%)" offset="0.722656"/><stop stop-opacity="1" stop-color="rgb(6.150818%, 38.94043%, 71.611023%)" offset="0.726562"/><stop stop-opacity="1" stop-color="rgb(5.941772%, 38.60321%, 71.482849%)" offset="0.730469"/><stop stop-opacity="1" stop-color="rgb(5.734253%, 38.267517%, 71.354675%)" offset="0.734375"/><stop stop-opacity="1" stop-color="rgb(5.525208%, 37.931824%, 71.226501%)" offset="0.738281"/><stop stop-opacity="1" stop-color="rgb(5.316162%, 37.59613%, 71.099854%)" offset="0.742188"/><stop stop-opacity="1" stop-color="rgb(5.107117%, 37.258911%, 70.97168%)" offset="0.746094"/><stop stop-opacity="1" stop-color="rgb(4.899597%, 36.923218%, 70.843506%)" offset="0.75"/><stop stop-opacity="1" stop-color="rgb(4.690552%, 36.587524%, 70.715332%)" offset="0.753906"/><stop stop-opacity="1" stop-color="rgb(4.483032%, 36.251831%, 70.588684%)" offset="0.757813"/><stop stop-opacity="1" stop-color="rgb(4.273987%, 35.914612%, 70.46051%)" offset="0.761719"/><stop stop-opacity="1" stop-color="rgb(4.066467%, 35.578918%, 70.332336%)" offset="0.765625"/><stop stop-opacity="1" stop-color="rgb(3.857422%, 35.243225%, 70.204163%)" offset="0.769531"/><stop stop-opacity="1" stop-color="rgb(3.649902%, 34.907532%, 70.077515%)" offset="0.773438"/><stop stop-opacity="1" stop-color="rgb(3.440857%, 34.571838%, 69.949341%)" offset="0.777344"/><stop stop-opacity="1" stop-color="rgb(3.233337%, 34.236145%, 69.822693%)" offset="0.78125"/><stop stop-opacity="1" stop-color="rgb(3.024292%, 33.898926%, 69.694519%)" offset="0.785156"/><stop stop-opacity="1" stop-color="rgb(2.816772%, 33.563232%, 69.566345%)" offset="0.789062"/><stop stop-opacity="1" stop-color="rgb(2.607727%, 33.227539%, 69.438171%)" offset="0.792969"/><stop stop-opacity="1" stop-color="rgb(2.400208%, 32.891846%, 69.311523%)" offset="0.796875"/><stop stop-opacity="1" stop-color="rgb(2.191162%, 32.554626%, 69.18335%)" offset="0.800781"/><stop stop-opacity="1" stop-color="rgb(1.983643%, 32.218933%, 69.055176%)" offset="0.804688"/><stop stop-opacity="1" stop-color="rgb(1.774597%, 31.88324%, 68.927002%)" offset="0.808594"/><stop stop-opacity="1" stop-color="rgb(1.567078%, 31.547546%, 68.800354%)" offset="0.8125"/><stop stop-opacity="1" stop-color="rgb(1.358032%, 31.210327%, 68.67218%)" offset="0.816406"/><stop stop-opacity="1" stop-color="rgb(1.150513%, 30.874634%, 68.544006%)" offset="0.820313"/><stop stop-opacity="1" stop-color="rgb(0.941467%, 30.53894%, 68.415833%)" offset="0.824219"/><stop stop-opacity="1" stop-color="rgb(0.733948%, 30.203247%, 68.289185%)" offset="0.828125"/><stop stop-opacity="1" stop-color="rgb(0.524902%, 29.866028%, 68.161011%)" offset="0.832031"/><stop stop-opacity="1" stop-color="rgb(0.315857%, 29.530334%, 68.034363%)" offset="0.835938"/><stop stop-opacity="1" stop-color="rgb(0.157166%, 29.273987%, 67.936707%)" offset="0.839844"/><stop stop-opacity="1" stop-color="rgb(0%, 29.019165%, 67.83905%)" offset="0.84375"/><stop stop-opacity="1" stop-color="rgb(0%, 29.019165%, 67.83905%)" offset="0.875"/><stop stop-opacity="1" stop-color="rgb(0%, 29.019165%, 67.83905%)" offset="1"/></linearGradient><clipPath id="6466e26f9a"><rect x="0" width="375" y="0" height="124"/></clipPath><clipPath id="337bdfa201"><path d="M 0 0.902344 L 375 0.902344 L 375 123.902344 L 0 123.902344 Z M 0 0.902344 " clip-rule="nonzero"/></clipPath><clipPath id="3f8e8018b1"><rect x="0" width="375" y="0" height="124"/></clipPath><clipPath id="40f7e0413f"><rect x="0" width="375" y="0" height="124"/></clipPath><mask id="9e9b69b8aa"><g filter="url(#319ab2348a)"><g transform="matrix(1, 0, 0, 1, 0, 0)"><g clip-path="url(#40f7e0413f)"><g clip-path="url(#337bdfa201)"><g transform="matrix(1, 0, 0, 1, 0, 0)"><g clip-path="url(#3f8e8018b1)"><g fill="#000000" fill-opacity="1"><g transform="translate(89.607944, 69.902377)"><g><path d="M 16.296875 -15.9375 L 16.296875 0 L 13.859375 0 L 5.078125 -10.796875 L 5.078125 0 L 2.140625 0 L 2.140625 -15.9375 L 4.578125 -15.9375 L 13.359375 -5.140625 L 13.359375 -15.9375 Z M 16.296875 -15.9375 "/></g></g></g><g fill="#000000" fill-opacity="1"><g transform="translate(109.202986, 69.902377)"><g><path d="M 1.859375 -12.15625 L 4.71875 -12.15625 L 4.71875 0 L 1.859375 0 Z M 3.296875 -14.15625 C 2.773438 -14.15625 2.335938 -14.316406 1.984375 -14.640625 C 1.640625 -14.972656 1.46875 -15.382812 1.46875 -15.875 C 1.46875 -16.351562 1.640625 -16.753906 1.984375 -17.078125 C 2.335938 -17.410156 2.773438 -17.578125 3.296875 -17.578125 C 3.804688 -17.578125 4.234375 -17.421875 4.578125 -17.109375 C 4.929688 -16.796875 5.109375 -16.40625 5.109375 -15.9375 C 5.109375 -15.4375 4.9375 -15.015625 4.59375 -14.671875 C 4.257812 -14.328125 3.828125 -14.15625 3.296875 -14.15625 Z M 3.296875 -14.15625 "/></g></g></g><g fill="#000000" fill-opacity="1"><g transform="translate(116.941194, 69.902377)"><g><path d="M 7.4375 0.15625 C 6.1875 0.15625 5.054688 -0.109375 4.046875 -0.640625 C 3.046875 -1.171875 2.265625 -1.910156 1.703125 -2.859375 C 1.140625 -3.804688 0.859375 -4.878906 0.859375 -6.078125 C 0.859375 -7.273438 1.140625 -8.34375 1.703125 -9.28125 C 2.265625 -10.226562 3.039062 -10.96875 4.03125 -11.5 C 5.03125 -12.03125 6.164062 -12.296875 7.4375 -12.296875 C 8.644531 -12.296875 9.695312 -12.050781 10.59375 -11.5625 C 11.5 -11.082031 12.179688 -10.382812 12.640625 -9.46875 L 10.453125 -8.203125 C 10.097656 -8.753906 9.660156 -9.171875 9.140625 -9.453125 C 8.617188 -9.734375 8.046875 -9.875 7.421875 -9.875 C 6.359375 -9.875 5.476562 -9.53125 4.78125 -8.84375 C 4.082031 -8.15625 3.734375 -7.234375 3.734375 -6.078125 C 3.734375 -4.921875 4.078125 -4 4.765625 -3.3125 C 5.460938 -2.625 6.347656 -2.28125 7.421875 -2.28125 C 8.046875 -2.28125 8.617188 -2.421875 9.140625 -2.703125 C 9.660156 -2.984375 10.097656 -3.40625 10.453125 -3.96875 L 12.640625 -2.6875 C 12.160156 -1.78125 11.46875 -1.078125 10.5625 -0.578125 C 9.664062 -0.0859375 8.625 0.15625 7.4375 0.15625 Z M 7.4375 0.15625 "/></g></g></g><g fill="#000000" fill-opacity="1"><g transform="translate(131.324689, 69.902377)"><g><path d="M 8.765625 -12.296875 C 10.296875 -12.296875 11.523438 -11.847656 12.453125 -10.953125 C 13.378906 -10.054688 13.84375 -8.726562 13.84375 -6.96875 L 13.84375 0 L 11 0 L 11 -6.609375 C 11 -7.671875 10.75 -8.46875 10.25 -9 C 9.75 -9.539062 9.035156 -9.8125 8.109375 -9.8125 C 7.054688 -9.8125 6.226562 -9.492188 5.625 -8.859375 C 5.019531 -8.234375 4.71875 -7.328125 4.71875 -6.140625 L 4.71875 0 L 1.859375 0 L 1.859375 -16.890625 L 4.71875 -16.890625 L 4.71875 -10.75 C 5.1875 -11.25 5.765625 -11.628906 6.453125 -11.890625 C 7.140625 -12.160156 7.910156 -12.296875 8.765625 -12.296875 Z M 8.765625 -12.296875 "/></g></g></g><g fill="#000000" fill-opacity="1"><g transform="translate(148.074993, 69.902377)"><g><path d="M 13.296875 -6.015625 C 13.296875 -5.816406 13.28125 -5.535156 13.25 -5.171875 L 3.703125 -5.171875 C 3.878906 -4.273438 4.316406 -3.5625 5.015625 -3.03125 C 5.722656 -2.507812 6.601562 -2.25 7.65625 -2.25 C 8.988281 -2.25 10.085938 -2.691406 10.953125 -3.578125 L 12.46875 -1.828125 C 11.925781 -1.171875 11.238281 -0.675781 10.40625 -0.34375 C 9.570312 -0.0078125 8.628906 0.15625 7.578125 0.15625 C 6.242188 0.15625 5.066406 -0.109375 4.046875 -0.640625 C 3.035156 -1.171875 2.25 -1.910156 1.6875 -2.859375 C 1.132812 -3.804688 0.859375 -4.878906 0.859375 -6.078125 C 0.859375 -7.265625 1.128906 -8.332031 1.671875 -9.28125 C 2.210938 -10.226562 2.957031 -10.96875 3.90625 -11.5 C 4.863281 -12.03125 5.941406 -12.296875 7.140625 -12.296875 C 8.328125 -12.296875 9.382812 -12.03125 10.3125 -11.5 C 11.25 -10.976562 11.976562 -10.242188 12.5 -9.296875 C 13.03125 -8.347656 13.296875 -7.253906 13.296875 -6.015625 Z M 7.140625 -10.015625 C 6.234375 -10.015625 5.460938 -9.742188 4.828125 -9.203125 C 4.203125 -8.671875 3.820312 -7.957031 3.6875 -7.0625 L 10.59375 -7.0625 C 10.46875 -7.9375 10.09375 -8.644531 9.46875 -9.1875 C 8.84375 -9.738281 8.066406 -10.015625 7.140625 -10.015625 Z M 7.140625 -10.015625 "/></g></g></g><g fill="#000000" fill-opacity="1"><g transform="translate(163.391558, 69.902377)"><g><path d="M 6.8125 -14.75 C 5.613281 -14.75 5.015625 -14.097656 5.015625 -12.796875 L 5.015625 -12.0625 L 8.359375 -12.0625 L 8.359375 -9.796875 L 5.09375 -9.796875 L 5.09375 0 L 2.25 0 L 2.25 -9.796875 L 0.25 -9.796875 L 0.25 -12.0625 L 2.25 -12.0625 L 2.25 -12.84375 C 2.25 -14.144531 2.628906 -15.171875 3.390625 -15.921875 C 4.148438 -16.671875 5.222656 -17.046875 6.609375 -17.046875 C 7.691406 -17.046875 8.546875 -16.828125 9.171875 -16.390625 L 8.375 -14.25 C 7.894531 -14.582031 7.375 -14.75 6.8125 -14.75 Z M 6.8125 -14.75 "/></g></g></g><g fill="#000000" fill-opacity="1"><g transform="translate(172.950396, 69.902377)"><g><path d="M 1.859375 -12.15625 L 4.71875 -12.15625 L 4.71875 0 L 1.859375 0 Z M 3.296875 -14.15625 C 2.773438 -14.15625 2.335938 -14.316406 1.984375 -14.640625 C 1.640625 -14.972656 1.46875 -15.382812 1.46875 -15.875 C 1.46875 -16.351562 1.640625 -16.753906 1.984375 -17.078125 C 2.335938 -17.410156 2.773438 -17.578125 3.296875 -17.578125 C 3.804688 -17.578125 4.234375 -17.421875 4.578125 -17.109375 C 4.929688 -16.796875 5.109375 -16.40625 5.109375 -15.9375 C 5.109375 -15.4375 4.9375 -15.015625 4.59375 -14.671875 C 4.257812 -14.328125 3.828125 -14.15625 3.296875 -14.15625 Z M 3.296875 -14.15625 "/></g></g></g><g fill="#000000" fill-opacity="1"><g transform="translate(180.688604, 69.902377)"><g><path d="M 8.765625 -12.296875 C 10.296875 -12.296875 11.523438 -11.847656 12.453125 -10.953125 C 13.378906 -10.054688 13.84375 -8.726562 13.84375 -6.96875 L 13.84375 0 L 11 0 L 11 -6.609375 C 11 -7.671875 10.75 -8.46875 10.25 -9 C 9.75 -9.539062 9.035156 -9.8125 8.109375 -9.8125 C 7.054688 -9.8125 6.226562 -9.492188 5.625 -8.859375 C 5.019531 -8.234375 4.71875 -7.328125 4.71875 -6.140625 L 4.71875 0 L 1.859375 0 L 1.859375 -12.15625 L 4.578125 -12.15625 L 4.578125 -10.59375 C 5.046875 -11.144531 5.632812 -11.566406 6.34375 -11.859375 C 7.0625 -12.148438 7.867188 -12.296875 8.765625 -12.296875 Z M 8.765625 -12.296875 "/></g></g></g><g fill="#000000" fill-opacity="1"><g transform="translate(197.438908, 69.902377)"><g><path d="M 13.765625 -16.890625 L 13.765625 0 L 11.046875 0 L 11.046875 -1.578125 C 10.566406 -0.992188 9.984375 -0.554688 9.296875 -0.265625 C 8.609375 0.015625 7.847656 0.15625 7.015625 0.15625 C 5.847656 0.15625 4.796875 -0.0976562 3.859375 -0.609375 C 2.921875 -1.128906 2.1875 -1.863281 1.65625 -2.8125 C 1.125 -3.757812 0.859375 -4.847656 0.859375 -6.078125 C 0.859375 -7.304688 1.125 -8.390625 1.65625 -9.328125 C 2.1875 -10.273438 2.921875 -11.003906 3.859375 -11.515625 C 4.796875 -12.035156 5.847656 -12.296875 7.015625 -12.296875 C 7.816406 -12.296875 8.550781 -12.15625 9.21875 -11.875 C 9.882812 -11.601562 10.453125 -11.195312 10.921875 -10.65625 L 10.921875 -16.890625 Z M 7.359375 -2.28125 C 8.035156 -2.28125 8.644531 -2.429688 9.1875 -2.734375 C 9.738281 -3.046875 10.171875 -3.488281 10.484375 -4.0625 C 10.804688 -4.644531 10.96875 -5.316406 10.96875 -6.078125 C 10.96875 -6.835938 10.804688 -7.503906 10.484375 -8.078125 C 10.171875 -8.660156 9.738281 -9.101562 9.1875 -9.40625 C 8.644531 -9.71875 8.035156 -9.875 7.359375 -9.875 C 6.671875 -9.875 6.050781 -9.71875 5.5 -9.40625 C 4.957031 -9.101562 4.523438 -8.660156 4.203125 -8.078125 C 3.890625 -7.503906 3.734375 -6.835938 3.734375 -6.078125 C 3.734375 -5.316406 3.890625 -4.644531 4.203125 -4.0625 C 4.523438 -3.488281 4.957031 -3.046875 5.5 -2.734375 C 6.050781 -2.429688 6.671875 -2.28125 7.359375 -2.28125 Z M 7.359375 -2.28125 "/></g></g></g><g fill="#000000" fill-opacity="1"><g transform="translate(214.234737, 69.902377)"><g><path d="M 13.296875 -6.015625 C 13.296875 -5.816406 13.28125 -5.535156 13.25 -5.171875 L 3.703125 -5.171875 C 3.878906 -4.273438 4.316406 -3.5625 5.015625 -3.03125 C 5.722656 -2.507812 6.601562 -2.25 7.65625 -2.25 C 8.988281 -2.25 10.085938 -2.691406 10.953125 -3.578125 L 12.46875 -1.828125 C 11.925781 -1.171875 11.238281 -0.675781 10.40625 -0.34375 C 9.570312 -0.0078125 8.628906 0.15625 7.578125 0.15625 C 6.242188 0.15625 5.066406 -0.109375 4.046875 -0.640625 C 3.035156 -1.171875 2.25 -1.910156 1.6875 -2.859375 C 1.132812 -3.804688 0.859375 -4.878906 0.859375 -6.078125 C 0.859375 -7.265625 1.128906 -8.332031 1.671875 -9.28125 C 2.210938 -10.226562 2.957031 -10.96875 3.90625 -11.5 C 4.863281 -12.03125 5.941406 -12.296875 7.140625 -12.296875 C 8.328125 -12.296875 9.382812 -12.03125 10.3125 -11.5 C 11.25 -10.976562 11.976562 -10.242188 12.5 -9.296875 C 13.03125 -8.347656 13.296875 -7.253906 13.296875 -6.015625 Z M 7.140625 -10.015625 C 6.234375 -10.015625 5.460938 -9.742188 4.828125 -9.203125 C 4.203125 -8.671875 3.820312 -7.957031 3.6875 -7.0625 L 10.59375 -7.0625 C 10.46875 -7.9375 10.09375 -8.644531 9.46875 -9.1875 C 8.84375 -9.738281 8.066406 -10.015625 7.140625 -10.015625 Z M 7.140625 -10.015625 "/></g></g></g><g fill="#000000" fill-opacity="1"><g transform="translate(229.551302, 69.902377)"><g><path d="M 4.578125 -10.375 C 5.398438 -11.65625 6.84375 -12.296875 8.90625 -12.296875 L 8.90625 -9.578125 C 8.65625 -9.628906 8.429688 -9.65625 8.234375 -9.65625 C 7.128906 -9.65625 6.265625 -9.332031 5.640625 -8.6875 C 5.023438 -8.039062 4.71875 -7.109375 4.71875 -5.890625 L 4.71875 0 L 1.859375 0 L 1.859375 -12.15625 L 4.578125 -12.15625 Z M 4.578125 -10.375 "/></g></g></g><g fill="#000000" fill-opacity="1"><g transform="translate(240.270788, 69.902377)"><g><path d="M 5.625 0.15625 C 4.632812 0.15625 3.671875 0.03125 2.734375 -0.21875 C 1.796875 -0.476562 1.046875 -0.804688 0.484375 -1.203125 L 1.578125 -3.375 C 2.117188 -3.007812 2.769531 -2.710938 3.53125 -2.484375 C 4.300781 -2.265625 5.0625 -2.15625 5.8125 -2.15625 C 7.507812 -2.15625 8.359375 -2.601562 8.359375 -3.5 C 8.359375 -3.925781 8.140625 -4.222656 7.703125 -4.390625 C 7.273438 -4.554688 6.582031 -4.71875 5.625 -4.875 C 4.625 -5.019531 3.804688 -5.191406 3.171875 -5.390625 C 2.546875 -5.585938 2 -5.929688 1.53125 -6.421875 C 1.070312 -6.921875 0.84375 -7.609375 0.84375 -8.484375 C 0.84375 -9.640625 1.320312 -10.5625 2.28125 -11.25 C 3.25 -11.945312 4.550781 -12.296875 6.1875 -12.296875 C 7.019531 -12.296875 7.851562 -12.195312 8.6875 -12 C 9.53125 -11.8125 10.21875 -11.5625 10.75 -11.25 L 9.65625 -9.078125 C 8.625 -9.691406 7.460938 -10 6.171875 -10 C 5.335938 -10 4.703125 -9.875 4.265625 -9.625 C 3.835938 -9.375 3.625 -9.039062 3.625 -8.625 C 3.625 -8.164062 3.851562 -7.84375 4.3125 -7.65625 C 4.78125 -7.46875 5.5 -7.289062 6.46875 -7.125 C 7.4375 -6.96875 8.234375 -6.789062 8.859375 -6.59375 C 9.484375 -6.40625 10.015625 -6.070312 10.453125 -5.59375 C 10.898438 -5.125 11.125 -4.457031 11.125 -3.59375 C 11.125 -2.457031 10.628906 -1.546875 9.640625 -0.859375 C 8.660156 -0.179688 7.320312 0.15625 5.625 0.15625 Z M 5.625 0.15625 "/></g></g></g><g fill="#000000" fill-opacity="1"><g transform="translate(253.152268, 69.902377)"><g/></g></g><g fill="#000000" fill-opacity="1"><g transform="translate(260.594624, 69.902377)"><g><path d="M 12.46875 -3.6875 L 4.5 -3.6875 L 2.9375 0 L -0.109375 0 L 7.0625 -15.9375 L 9.96875 -15.9375 L 17.171875 0 L 14.0625 0 Z M 11.5 -6.015625 L 8.484375 -12.96875 L 5.515625 -6.015625 Z M 11.5 -6.015625 "/></g></g></g><g fill="#000000" fill-opacity="1"><g transform="translate(278.801429, 69.902377)"><g><path d="M 1.859375 -12.15625 L 4.71875 -12.15625 L 4.71875 0 L 1.859375 0 Z M 3.296875 -14.15625 C 2.773438 -14.15625 2.335938 -14.316406 1.984375 -14.640625 C 1.640625 -14.972656 1.46875 -15.382812 1.46875 -15.875 C 1.46875 -16.351562 1.640625 -16.753906 1.984375 -17.078125 C 2.335938 -17.410156 2.773438 -17.578125 3.296875 -17.578125 C 3.804688 -17.578125 4.234375 -17.421875 4.578125 -17.109375 C 4.929688 -16.796875 5.109375 -16.40625 5.109375 -15.9375 C 5.109375 -15.4375 4.9375 -15.015625 4.59375 -14.671875 C 4.257812 -14.328125 3.828125 -14.15625 3.296875 -14.15625 Z M 3.296875 -14.15625 "/></g></g></g></g></g></g></g></g></g></mask><clipPath id="da48014616"><path d="M 44.085938 2.402344 L 332.074219 2.402344 L 332.074219 120.902344 L 44.085938 120.902344 Z M 44.085938 2.402344 " clip-rule="nonzero"/></clipPath><clipPath id="5158970ade"><rect x="0" width="375" y="0" height="124"/></clipPath><clipPath id="4279da09d8"><rect x="0" width="375" y="0" height="124"/></clipPath></defs><g clip-path="url(#5adeb09f67)"><g clip-path="url(#5c49fbfc8e)"><path fill="url(#533e5d5c2b)" d="M 115.714844 103.277344 L 115.714844 226.964844 L 244.714844 226.964844 L 244.714844 103.277344 Z M 115.714844 103.277344 " fill-rule="nonzero"/></g></g><g clip-path="url(#86d5b706d1)"><g transform="matrix(1, 0, 0, 1, 0, 178)"><g clip-path="url(#4279da09d8)"><g clip-path="url(#47e27767a9)"><g mask="url(#9e9b69b8aa)"><g transform="matrix(1, 0, 0, 1, 0, 0)"><g clip-path="url(#5158970ade)"><g clip-path="url(#da48014616)"><path fill="url(#caa62103dc)" d="M 44.085938 2.402344 L 44.085938 120.902344 L 332.074219 120.902344 L 332.074219 2.402344 Z M 44.085938 2.402344 " fill-rule="nonzero"/></g></g></g></g></g></g></g></g></svg>